  0
SECTION
  2
HEADER
  9
$ACADVER
  1
AC1024
  9
$ACADMAINTVER
 70
6
  9
$DWGCODEPAGE
  3
ANSI_1252
  9
$LASTSAVEDBY
  1
ezdxf
  9
$INSBASE
 10
0.0
 20
0.0
 30
0.0
  9
$EXTMIN
 10
1e+20
 20
1e+20
 30
1e+20
  9
$EXTMAX
 10
-1e+20
 20
-1e+20
 30
-1e+20
  9
$LIMMIN
 10
0.0
 20
0.0
  9
$LIMMAX
 10
420.0
 20
297.0
  9
$ORTHOMODE
 70
0
  9
$REGENMODE
 70
1
  9
$FILLMODE
 70
1
  9
$QTEXTMODE
 70
0
  9
$MIRRTEXT
 70
1
  9
$LTSCALE
 40
1.0
  9
$ATTMODE
 70
1
  9
$TEXTSIZE
 40
2.5
  9
$TRACEWID
 40
1.0
  9
$TEXTSTYLE
  7
Standard
  9
$CLAYER
  8
0
  9
$CELTYPE
  6
ByLayer
  9
$CECOLOR
 62
256
  9
$CELTSCALE
 40
1.0
  9
$DISPSILH
 70
0
  9
$DIMSCALE
 40
1.0
  9
$DIMASZ
 40
2.5
  9
$DIMEXO
 40
0.625
  9
$DIMDLI
 40
3.75
  9
$DIMRND
 40
0.0
  9
$DIMDLE
 40
0.0
  9
$DIMEXE
 40
1.25
  9
$DIMTP
 40
0.0
  9
$DIMTM
 40
0.0
  9
$DIMTXT
 40
2.5
  9
$DIMCEN
 40
2.5
  9
$DIMTSZ
 40
0.0
  9
$DIMTOL
 70
0
  9
$DIMLIM
 70
0
  9
$DIMTIH
 70
0
  9
$DIMTOH
 70
0
  9
$DIMSE1
 70
0
  9
$DIMSE2
 70
0
  9
$DIMTAD
 70
1
  9
$DIMZIN
 70
8
  9
$DIMBLK
  1

  9
$DIMASO
 70
1
  9
$DIMSHO
 70
1
  9
$DIMPOST
  1

  9
$DIMAPOST
  1

  9
$DIMALT
 70
0
  9
$DIMALTD
 70
3
  9
$DIMALTF
 40
0.03937007874
  9
$DIMLFAC
 40
1.0
  9
$DIMTOFL
 70
1
  9
$DIMTVP
 40
0.0
  9
$DIMTIX
 70
0
  9
$DIMSOXD
 70
0
  9
$DIMSAH
 70
0
  9
$DIMBLK1
  1

  9
$DIMBLK2
  1

  9
$DIMSTYLE
  2
ISO-25
  9
$DIMCLRD
 70
0
  9
$DIMCLRE
 70
0
  9
$DIMCLRT
 70
0
  9
$DIMTFAC
 40
1.0
  9
$DIMGAP
 40
0.625
  9
$DIMJUST
 70
0
  9
$DIMSD1
 70
0
  9
$DIMSD2
 70
0
  9
$DIMTOLJ
 70
0
  9
$DIMTZIN
 70
8
  9
$DIMALTZ
 70
0
  9
$DIMALTTZ
 70
0
  9
$DIMUPT
 70
0
  9
$DIMDEC
 70
2
  9
$DIMTDEC
 70
2
  9
$DIMALTU
 70
2
  9
$DIMALTTD
 70
3
  9
$DIMTXSTY
  7
Standard
  9
$DIMAUNIT
 70
0
  9
$DIMADEC
 70
0
  9
$DIMALTRND
 40
0.0
  9
$DIMAZIN
 70
0
  9
$DIMDSEP
 70
44
  9
$DIMATFIT
 70
3
  9
$DIMFRAC
 70
0
  9
$DIMLDRBLK
  1

  9
$DIMLUNIT
 70
2
  9
$DIMLWD
 70
-2
  9
$DIMLWE
 70
-2
  9
$DIMTMOVE
 70
0
  9
$DIMFXL
 40
1.0
  9
$DIMFXLON
 70
0
  9
$DIMJOGANG
 40
0.785398163397
  9
$DIMTFILL
 70
0
  9
$DIMTFILLCLR
 70
0
  9
$DIMARCSYM
 70
0
  9
$DIMLTYPE
  6

  9
$DIMLTEX1
  6

  9
$DIMLTEX2
  6

  9
$DIMTXTDIRECTION
 70
0
  9
$LUNITS
 70
2
  9
$LUPREC
 70
4
  9
$SKETCHINC
 40
1.0
  9
$FILLETRAD
 40
10.0
  9
$AUNITS
 70
0
  9
$AUPREC
 70
2
  9
$MENU
  1
.
  9
$ELEVATION
 40
0.0
  9
$PELEVATION
 40
0.0
  9
$THICKNESS
 40
0.0
  9
$LIMCHECK
 70
0
  9
$CHAMFERA
 40
0.0
  9
$CHAMFERB
 40
0.0
  9
$CHAMFERC
 40
0.0
  9
$CHAMFERD
 40
0.0
  9
$SKPOLY
 70
0
  9
$TDCREATE
 40
2459912.7194560184
  9
$TDUCREATE
 40
2458532.153996898
  9
$TDUPDATE
 40
2459912.7194560184
  9
$TDUUPDATE
 40
2458532.1544311
  9
$TDINDWG
 40
0.0
  9
$TDUSRTIMER
 40
0.0
  9
$USRTIMER
 70
1
  9
$ANGBASE
 50
0.0
  9
$ANGDIR
 70
0
  9
$PDMODE
 70
0
  9
$PDSIZE
 40
0.0
  9
$PLINEWID
 40
0.0
  9
$SPLFRAME
 70
0
  9
$SPLINETYPE
 70
6
  9
$SPLINESEGS
 70
8
  9
$HANDSEED
  5
36
  9
$SURFTAB1
 70
6
  9
$SURFTAB2
 70
6
  9
$SURFTYPE
 70
6
  9
$SURFU
 70
6
  9
$SURFV
 70
6
  9
$UCSBASE
  2

  9
$UCSNAME
  2

  9
$UCSORG
 10
0.0
 20
0.0
 30
0.0
  9
$UCSXDIR
 10
1.0
 20
0.0
 30
0.0
  9
$UCSYDIR
 10
0.0
 20
1.0
 30
0.0
  9
$UCSORTHOREF
  2

  9
$UCSORTHOVIEW
 70
0
  9
$UCSORGTOP
 10
0.0
 20
0.0
 30
0.0
  9
$UCSORGBOTTOM
 10
0.0
 20
0.0
 30
0.0
  9
$UCSORGLEFT
 10
0.0
 20
0.0
 30
0.0
  9
$UCSORGRIGHT
 10
0.0
 20
0.0
 30
0.0
  9
$UCSORGFRONT
 10
0.0
 20
0.0
 30
0.0
  9
$UCSORGBACK
 10
0.0
 20
0.0
 30
0.0
  9
$PUCSBASE
  2

  9
$PUCSNAME
  2

  9
$PUCSORG
 10
0.0
 20
0.0
 30
0.0
  9
$PUCSXDIR
 10
1.0
 20
0.0
 30
0.0
  9
$PUCSYDIR
 10
0.0
 20
1.0
 30
0.0
  9
$PUCSORTHOREF
  2

  9
$PUCSORTHOVIEW
 70
0
  9
$PUCSORGTOP
 10
0.0
 20
0.0
 30
0.0
  9
$PUCSORGBOTTOM
 10
0.0
 20
0.0
 30
0.0
  9
$PUCSORGLEFT
 10
0.0
 20
0.0
 30
0.0
  9
$PUCSORGRIGHT
 10
0.0
 20
0.0
 30
0.0
  9
$PUCSORGFRONT
 10
0.0
 20
0.0
 30
0.0
  9
$PUCSORGBACK
 10
0.0
 20
0.0
 30
0.0
  9
$USERI1
 70
0
  9
$USERI2
 70
0
  9
$USERI3
 70
0
  9
$USERI4
 70
0
  9
$USERI5
 70
0
  9
$USERR1
 40
0.0
  9
$USERR2
 40
0.0
  9
$USERR3
 40
0.0
  9
$USERR4
 40
0.0
  9
$USERR5
 40
0.0
  9
$WORLDVIEW
 70
1
  9
$SHADEDGE
 70
3
  9
$SHADEDIF
 70
70
  9
$TILEMODE
 70
1
  9
$MAXACTVP
 70
64
  9
$PINSBASE
 10
0.0
 20
0.0
 30
0.0
  9
$PLIMCHECK
 70
0
  9
$PEXTMIN
 10
1e+20
 20
1e+20
 30
1e+20
  9
$PEXTMAX
 10
-1e+20
 20
-1e+20
 30
-1e+20
  9
$PLIMMIN
 10
0.0
 20
0.0
  9
$PLIMMAX
 10
420.0
 20
297.0
  9
$UNITMODE
 70
0
  9
$VISRETAIN
 70
1
  9
$PLINEGEN
 70
0
  9
$PSLTSCALE
 70
1
  9
$TREEDEPTH
 70
3020
  9
$CMLSTYLE
  2
Standard
  9
$CMLJUST
 70
0
  9
$CMLSCALE
 40
20.0
  9
$PROXYGRAPHICS
 70
1
  9
$MEASUREMENT
 70
1
  9
$CELWEIGHT
370
-1
  9
$ENDCAPS
280
0
  9
$JOINSTYLE
280
0
  9
$LWDISPLAY
290
0
  9
$INSUNITS
 70
6
  9
$HYPERLINKBASE
  1

  9
$STYLESHEET
  1

  9
$XEDIT
290
1
  9
$CEPSNTYPE
380
0
  9
$PSTYLEMODE
290
1
  9
$FINGERPRINTGUID
  2
{A7C43FF0-A83D-455E-B8C9-CC3F42C37014}
  9
$VERSIONGUID
  2
{A75F2B1A-82F6-41C1-BDB1-7F510C7D3645}
  9
$EXTNAMES
290
1
  9
$PSVPSCALE
 40
0.0
  9
$OLESTARTUP
290
0
  9
$SORTENTS
280
127
  9
$INDEXCTL
280
0
  9
$HIDETEXT
280
1
  9
$XCLIPFRAME
280
0
  9
$HALOGAP
280
0
  9
$OBSCOLOR
 70
257
  9
$OBSLTYPE
280
0
  9
$INTERSECTIONDISPLAY
280
0
  9
$INTERSECTIONCOLOR
 70
257
  9
$DIMASSOC
280
2
  9
$PROJECTNAME
  1

  9
$CAMERADISPLAY
290
0
  9
$LENSLENGTH
 40
50.0
  9
$CAMERAHEIGHT
 40
0.0
  9
$STEPSPERSEC
 40
24.0
  9
$STEPSIZE
 40
100.0
  9
$3DDWFPREC
 40
2.0
  9
$PSOLWIDTH
 40
0.005
  9
$PSOLHEIGHT
 40
0.08
  9
$LOFTANG1
 40
1.570796326795
  9
$LOFTANG2
 40
1.570796326795
  9
$LOFTMAG1
 40
0.0
  9
$LOFTMAG2
 40
0.0
  9
$LOFTPARAM
 70
7
  9
$LOFTNORMALS
280
1
  9
$LATITUDE
 40
37.795
  9
$LONGITUDE
 40
-122.394
  9
$NORTHDIRECTION
 40
0.0
  9
$TIMEZONE
 70
-8000
  9
$LIGHTGLYPHDISPLAY
280
1
  9
$TILEMODELIGHTSYNCH
280
1
  9
$CMATERIAL
347
20
  9
$SOLIDHIST
280
0
  9
$SHOWHIST
280
1
  9
$DWFFRAME
280
2
  9
$DGNFRAME
280
2
  9
$REALWORLDSCALE
290
1
  9
$INTERFERECOLOR
 62
256
  9
$CSHADOW
280
0
  9
$SHADOWPLANELOCATION
 40
0.0
  0
ENDSEC
  0
SECTION
  2
CLASSES
  0
CLASS
  1
ACDBDICTIONARYWDFLT
  2
AcDbDictionaryWithDefault
  3
ObjectDBX Classes
 90
0
 91
0
280
0
281
0
  0
CLASS
  1
SUN
  2
AcDbSun
  3
SCENEOE
 90
1153
 91
0
280
0
281
0
  0
CLASS
  1
VISUALSTYLE
  2
AcDbVisualStyle
  3
ObjectDBX Classes
 90
4095
 91
0
280
0
281
0
  0
CLASS
  1
MATERIAL
  2
AcDbMaterial
  3
ObjectDBX Classes
 90
1153
 91
0
280
0
281
0
  0
CLASS
  1
SCALE
  2
AcDbScale
  3
ObjectDBX Classes
 90
1153
 91
0
280
0
281
0
  0
CLASS
  1
TABLESTYLE
  2
AcDbTableStyle
  3
ObjectDBX Classes
 90
4095
 91
0
280
0
281
0
  0
CLASS
  1
MLEADERSTYLE
  2
AcDbMLeaderStyle
  3
ACDB_MLEADERSTYLE_CLASS
 90
4095
 91
0
280
0
281
0
  0
CLASS
  1
DICTIONARYVAR
  2
AcDbDictionaryVar
  3
ObjectDBX Classes
 90
0
 91
0
280
0
281
0
  0
CLASS
  1
CELLSTYLEMAP
  2
AcDbCellStyleMap
  3
ObjectDBX Classes
 90
1152
 91
0
280
0
281
0
  0
CLASS
  1
MENTALRAYRENDERSETTINGS
  2
AcDbMentalRayRenderSettings
  3
SCENEOE
 90
1024
 91
0
280
0
281
0
  0
CLASS
  1
ACDBDETAILVIEWSTYLE
  2
AcDbDetailViewStyle
  3
ObjectDBX Classes
 90
1025
 91
0
280
0
281
0
  0
CLASS
  1
ACDBSECTIONVIEWSTYLE
  2
AcDbSectionViewStyle
  3
ObjectDBX Classes
 90
1025
 91
0
280
0
281
0
  0
CLASS
  1
RASTERVARIABLES
  2
AcDbRasterVariables
  3
ISM
 90
0
 91
0
280
0
281
0
  0
CLASS
  1
LAYOUT
  2
AcDbLayout
  3
ObjectDBX Classes
 90
0
 91
0
280
0
281
0
  0
CLASS
  1
ACDBPLACEHOLDER
  2
AcDbPlaceHolder
  3
ObjectDBX Classes
 90
0
 91
0
280
0
281
0
  0
ENDSEC
  0
SECTION
  2
TABLES
  0
TABLE
  2
VPORT
  5
8
330
0
100
AcDbSymbolTable
 70
1
  0
VPORT
  5
23
330
8
100
AcDbSymbolTableRecord
100
AcDbViewportTableRecord
  2
*Active
 70
0
 10
0.0
 20
0.0
 11
1.0
 21
1.0
 12
0.0
 22
0.0
 13
0.0
 23
0.0
 14
0.5
 24
0.5
 15
0.5
 25
0.5
 16
0.0
 26
0.0
 36
1.0
 17
0.0
 27
0.0
 37
0.0
 40
1000.0
 41
1.34
 42
50.0
 43
0.0
 44
0.0
 50
0.0
 51
0.0
 71
0
 72
1000
 73
1
 74
3
 75
0
 76
0
 77
0
 78
0
281
0
 65
0
146
0.0
  0
ENDTAB
  0
TABLE
  2
LTYPE
  5
2
330
0
100
AcDbSymbolTable
 70
3
  0
LTYPE
  5
24
330
2
100
AcDbSymbolTableRecord
100
AcDbLinetypeTableRecord
  2
ByBlock
 70
0
  3

 72
65
 73
0
 40
0.0
  0
LTYPE
  5
25
330
2
100
AcDbSymbolTableRecord
100
AcDbLinetypeTableRecord
  2
ByLayer
 70
0
  3

 72
65
 73
0
 40
0.0
  0
LTYPE
  5
26
330
2
100
AcDbSymbolTableRecord
100
AcDbLinetypeTableRecord
  2
Continuous
 70
0
  3

 72
65
 73
0
 40
0.0
  0
ENDTAB
  0
TABLE
  2
LAYER
  5
1
330
0
100
AcDbSymbolTable
 70
2
  0
LAYER
  5
27
330
1
100
AcDbSymbolTableRecord
100
AcDbLayerTableRecord
  2
0
 70
0
 62
7
  6
Continuous
370
-3
390
13
347
21
  0
LAYER
  5
28
330
1
100
AcDbSymbolTableRecord
100
AcDbLayerTableRecord
  2
Defpoints
 70
0
 62
7
  6
Continuous
290
0
370
-3
390
13
347
21
  0
ENDTAB
  0
TABLE
  2
STYLE
  5
5
330
0
100
AcDbSymbolTable
 70
1
  0
STYLE
  5
29
330
5
100
AcDbSymbolTableRecord
100
AcDbTextStyleTableRecord
  2
Standard
 70
0
 40
0.0
 41
1.0
 50
0.0
 71
0
 42
2.5
  3
txt
  4

  0
ENDTAB
  0
TABLE
  2
VIEW
  5
7
330
0
100
AcDbSymbolTable
 70
0
  0
ENDTAB
  0
TABLE
  2
UCS
  5
6
330
0
100
AcDbSymbolTable
 70
0
  0
ENDTAB
  0
TABLE
  2
APPID
  5
3
330
0
100
AcDbSymbolTable
 70
3
  0
APPID
  5
2A
330
3
100
AcDbSymbolTableRecord
100
AcDbRegAppTableRecord
  2
ACAD
 70
0
  0
APPID
  5
33
330
3
100
AcDbSymbolTableRecord
100
AcDbRegAppTableRecord
  2
HATCHBACKGROUNDCOLOR
 70
0
  0
APPID
  5
34
330
3
100
AcDbSymbolTableRecord
100
AcDbRegAppTableRecord
  2
EZDXF
 70
0
  0
ENDTAB
  0
TABLE
  2
DIMSTYLE
  5
4
330
0
100
AcDbSymbolTable
 70
1
100
AcDbDimStyleTable
  0
DIMSTYLE
105
2B
330
4
100
AcDbSymbolTableRecord
100
AcDbDimStyleTableRecord
  2
Standard
 70
0
 40
1.0
 41
2.5
 42
0.625
 43
3.75
 44
1.25
 45
0.0
 46
0.0
 47
0.0
 48
0.0
 49
2.5
140
2.5
141
2.5
142
0.0
143
0.03937007874
144
1.0
145
0.0
146
1.0
147
0.625
148
0.0
 69
0
 70
0
 71
0
 72
0
 73
0
 74
0
 75
0
 76
0
 77
1
 78
8
 79
3
170
0
171
3
172
1
173
0
174
0
175
0
176
0
177
0
178
0
179
2
271
2
272
2
273
2
274
3
275
0
276
0
277
2
278
44
279
0
280
0
281
0
282
0
283
0
284
8
285
0
286
0
288
0
289
3
290
0
371
-2
372
-2
  0
ENDTAB
  0
TABLE
  2
BLOCK_RECORD
  5
9
330
0
100
AcDbSymbolTable
 70
2
  0
BLOCK_RECORD
  5
17
330
9
100
AcDbSymbolTableRecord
100
AcDbBlockTableRecord
  2
*Model_Space
340
1A
 70
0
280
1
281
0
  0
BLOCK_RECORD
  5
1B
330
9
100
AcDbSymbolTableRecord
100
AcDbBlockTableRecord
  2
*Paper_Space
340
1E
 70
0
280
1
281
0
  0
ENDTAB
  0
ENDSEC
  0
SECTION
  2
BLOCKS
  0
BLOCK
  5
18
330
17
100
AcDbEntity
  8
0
100
AcDbBlockBegin
  2
*Model_Space
 70
0
 10
0.0
 20
0.0
 30
0.0
  3
*Model_Space
  1

  0
ENDBLK
  5
19
330
17
100
AcDbEntity
  8
0
100
AcDbBlockEnd
  0
BLOCK
  5
1C
330
1B
100
AcDbEntity
  8
0
100
AcDbBlockBegin
  2
*Paper_Space
 70
0
 10
0.0
 20
0.0
 30
0.0
  3
*Paper_Space
  1

  0
ENDBLK
  5
1D
330
1B
100
AcDbEntity
  8
0
100
AcDbBlockEnd
  0
ENDSEC
  0
SECTION
  2
ENTITIES
  0
LWPOLYLINE
  5
2F
330
17
100
AcDbEntity
  8
0
100
AcDbPolyline
 90
2
 70
0
 10
0.0
 20
230.0
 10
0.0
 20
0.0
  0
LWPOLYLINE
  5
30
330
17
100
AcDbEntity
  8
0
100
AcDbPolyline
 90
251
 70
0
 10
0.0
 20
230.0
 10
8.002654677076185
 20
230.03347285240113
 10
16.00600005266342
 20
230.06249510071558
 10
24.00994153802104
 20
230.0870356542328
 10
32.01436943776843
 20
230.1071934045672
 10
40.019190122926204
 20
230.12294634108375
 10
48.0243021505878
 20
230.1343834747423
 10
56.02961355687032
 20
230.1414918186763
 10
64.03503013216668
 20
230.14435042248712
 10
72.0404622527755
 20
230.14295510728513
 10
80.04582193130628
 20
230.13737503381824
 10
88.05102250438165
 20
230.12761447482998
 10
96.05598122857899
 20
230.11373290991125
 10
104.06061494624306
 20
230.0957425841207
 10
112.06484523257271
 20
230.0736936220979
 10
120.06859289078186
 20
230.0476056550787
 10
128.07178295820376
 20
230.01751988218658
 10
136.0743405520191
 20
229.9834626425513
 10
144.07619339646908
 20
229.94546672862379
 10
152.07727116508497
 20
229.90356443014534
 10
160.07750358443988
 20
229.85778072882832
 10
168.07682500999746
 20
229.8081530403283
 10
176.07516658364347
 20
229.75469919786644
 10
184.07246734750333
 20
229.6974608608923
 10
192.06865937424786
 20
229.63644943348828
 10
200.06368627400803
 20
229.57170988773356
 10
208.05748067166127
 20
229.50324796741506
 10
216.0499905017906
 20
229.43111098378222
 10
224.0411486713049
 20
229.35529983265832
 10
232.03090706981726
 20
229.27586315381336
 10
240.01919872640818
 20
229.19279784655635
 10
248.00597898954055
 20
229.106152834788
 10
255.99118096273196
 20
229.01592190914374
 10
263.97476282910327
 20
228.92215320130586
 10
271.95665783314297
 20
228.8248383164084
 10
279.9368262383756
 20
228.72402348570625
 10
287.91520161395863
 20
228.6196990879579
 10
295.8917454162314
 20
228.51190831232176
 10
303.8663918439532
 20
228.40064130859298
 10
311.83910252043546
 20
228.28593704537911
 10
319.8098127058728
 20
228.16778648328426
 10
327.7784830194612
 20
228.0462231500467
 10
335.7450503492569
 20
227.92123990506474
 10
343.7094729845016
 20
227.7928635661504
 10
351.6716901522994
 20
227.66109003537863
 10
359.6316563188689
 20
227.52593809411957
 10
367.5893139194247
 20
227.38740789648074
 10
375.54461192092015
 20
227.2455087927841
 10
383.497497010193
 20
227.10024647554454
 10
391.4479107755794
 20
226.9516193887167
 10
399.39580539409513
 20
226.79964014022434
 10
407.3411129684785
 20
226.64429469691075
 10
415.2837926247522
 20
226.48560406551948
 10
423.2237646156979
 20
226.32354005269633
 10
431.1609967260114
 20
226.15813367191498
 10
439.0953947010635
 20
225.9893407549314
 10
447.02693561600995
 20
225.81720250783474
 10
454.9555118119613
 20
225.6416615206615
 10
462.8811012424014
 20
225.46275920022478
 10
470.8036007636595
 20
225.280445951621
 10
478.7229703137274
 20
225.09474274229214
 10
486.6391191012099
 20
224.90561601315463
 10
494.5519852675126
 20
224.71306403029058
 10
502.4614934671168
 20
224.51707152637525
 10
510.36755574834064
 20
224.3176115588753
 10
518.270115822167
 20
224.11468967463816
 10
526.1690547469343
 20
223.9082509342498
 10
534.0643333716565
 20
223.69831877197552
 10
541.9558145716364
 20
223.48482440373218
 10
549.8434514059101
 20
223.26778507900463
 10
557.7271226380021
 20
223.04715040364664
 10
565.6067415579122
 20
222.82290314472448
 10
573.482217061798
 20
222.59502312785776
 10
581.3534153098653
 20
222.36345476788637
 10
589.220274789663
 20
222.12820606985147
 10
597.0826277871097
 20
221.88919688697445
 10
604.9404080816311
 20
221.64643369440952
 10
612.7934727869476
 20
221.39986121197634
 10
620.6416935844356
 20
221.149438467059
 10
628.4849775580593
 20
220.89515388882208
 10
636.3231227916153
 20
220.63691345813635
 10
644.1560605622808
 20
220.37472780855467
 10
651.9836122443094
 20
220.1085257204038
 10
659.8056277437828
 20
219.8382603303116
 10
667.6219912740823
 20
219.5639115451361
 10
675.4324721857698
 20
219.2853794246636
 10
683.2369689839854
 20
219.00265853544158
 10
691.0352957932525
 20
218.7156859334775
 10
698.8272357211994
 20
218.42438105412523
 10
706.6126639602994
 20
218.1287281717121
 10
714.3913442750066
 20
217.82863969982128
 10
722.1630822351146
 20
217.52405924417172
 10
729.9277126185464
 20
217.21495150602348
 10
737.6849597062916
 20
216.9012143362833
 10
745.4346357997207
 20
216.5828045031595
 10
753.1765395390764
 20
216.2596725232582
 10
760.9103638086992
 20
215.93170882287777
 10
768.6359045143821
 20
215.5988693967289
 10
776.3529317358327
 20
215.26109743246514
 10
784.061119964622
 20
214.91828505670193
 10
791.7602155605608
 20
214.57036983862125
 10
799.4499721870573
 20
214.2172963561785
 10
807.1300656666084
 20
213.85897004777274
 10
814.8001461892197
 20
213.49528774666328
 10
822.4599693893755
 20
213.1262064781191
 10
830.1092083001787
 20
212.7516429046231
 10
837.7474511414921
 20
212.37147537776093
 10
845.3743835424624
 20
211.98563698283894
 10
852.9896753220169
 20
211.59405643882536
 10
860.5929505746689
 20
211.19664414384096
 10
868.1837504131051
 20
210.7932761900149
 10
875.761702099738
 20
210.38387536981787
 10
883.3264260147372
 20
209.96836535375346
 10
890.8774913984751
 20
209.54665085547583
 10
898.4144527840766
 20
209.11863525662415
 10
905.9367602628824
 20
208.68418204404367
 10
913.4440131715048
 20
208.2432260374973
 10
920.9357326327145
 20
207.79567269825066
 10
928.4114108543602
 20
207.3414208324095
 10
935.8705234405545
 20
206.88036824016424
 10
943.3125290187261
 20
206.41241179577617
 10
950.7368514626336
 20
205.93744074403003
 10
958.1428742533305
 20
205.45533533946767
 10
965.5300647067021
 20
204.96601461496985
 10
972.8978111088062
 20
204.46937297489498
 10
980.2454832364573
 20
203.96530442642816
 10
987.5724321013714
 20
203.45370270662247
 10
994.87798972638
 20
202.93446141882305
 10
1002.1614689589845
 20
202.40747417903293
 10
1009.4221633281522
 20
201.8726347728084
 10
1016.6593469509494
 20
201.32983732330558
 10
1023.8722744964055
 20
200.77897647113016
 10
1031.060181214874
 20
200.2199475666829
 10
1038.2222830421597
 20
199.65264687572466
 10
1045.3577767887905
 20
199.0769717989311
 10
1052.4658404260895
 20
198.492821106245
 10
1059.545621665248
 20
197.90009166877726
 10
1066.5961028660024
 20
197.29863945771837
 10
1073.6165369651096
 20
196.68840863495052
 10
1080.6060265351625
 20
196.06930530226782
 10
1087.5636581370218
 20
195.4412383033417
 10
1094.488503465602
 20
194.80411956360012
 10
1101.3793289659843
 20
194.157786995233
 10
1108.235304061877
 20
193.50219652527696
 10
1115.055553373729
 20
192.83729672853826
 10
1121.83893582119
 20
192.1629744089943
 10
1128.5841345607862
 20
191.47908319250348
 10
1135.2905418699927
 20
190.78566009490706
 10
1141.9566995557811
 20
190.08253988025638
 10
1148.581601801366
 20
189.36967698339134
 10
1155.1642923956695
 20
188.64704228216007
 10
1161.7032193896362
 20
187.91447913006755
 10
1168.1977117941778
 20
187.172037296171
 10
1174.6461296023306
 20
186.41955895826143
 10
1181.0475750616406
 20
185.657056641865
 10
1187.4009353390636
 20
184.88450167162492
 10
1193.704405270953
 20
184.10173192237173
 10
1199.9574456008017
 20
183.30885123003276
 10
1206.1587486481428
 20
182.5058115597711
 10
1212.3062897699267
 20
181.6924380664797
 10
1218.3995212826308
 20
180.86884745664028
 10
1224.4371246923313
 20
180.0350132211802
 10
1230.4177795844553
 20
179.1909162011806
 10
1236.3401677158415
 20
178.3365451113243
 10
1242.2029777529835
 20
177.47189709585612
 10
1248.004910759621
 20
176.5969783199709
 10
1253.7446865566797
 20
175.71180459997836
 10
1259.4210511019592
 20
174.81640207611414
 10
1265.0327850671865
 20
173.91080793248915
 10
1270.5787138276526
 20
172.99507116942627
 10
1276.0577191267841
 20
172.06925343434807
 10
1281.4681814030537
 20
171.13334784948302
 10
1286.8085475139596
 20
170.1873676623378
 10
1292.0786809537262
 20
169.231529132109
 10
1297.2765061752505
 20
168.2657793561435
 10
1302.4010105513512
 20
167.29022119258863
 10
1307.4513962241488
 20
166.30498571796085
 10
1312.4260832107445
 20
165.31010767976116
 10
1317.3238728838214
 20
164.3056760292451
 10
1322.1446504364385
 20
163.29191342624895
 10
1326.8556537324464
 20
162.26526715301856
 10
1331.4326129000137
 20
161.2234767152239
 10
1335.8790390067395
 20
160.16755843999047
 10
1340.1977442375037
 20
159.0983842870934
 10
1344.3918214538533
 20
158.01679665608515
 10
1348.4646777884102
 20
156.92361082904694
 10
1352.4163390216165
 20
155.81928834667298
 10
1356.252281877726
 20
154.7047497388874
 10
1359.9772640961985
 20
153.58077733492402
 10
1363.587737466238
 20
152.4474418981532
 10
1367.0936113818345
 20
151.30587347293707
 10
1370.4922830037335
 20
150.15617631107173
 10
1373.7882033723363
 20
148.99897685622736
 10
1376.9851896000398
 20
147.83481475550585
 10
1380.0849780351127
 20
146.66405577485983
 10
1383.089455000209
 20
145.4870596469247
 10
1386.0006741854122
 20
144.3041802533568
 10
1388.8208779020827
 20
143.1157658246077
 10
1391.5525233103785
 20
141.92215916665313
 10
1394.1983151013867
 20
140.72369792547548
 10
1396.7612466320904
 20
139.5207149019916
 10
1399.2446522499708
 20
138.31353843285774
 10
1401.6429923032836
 20
137.1020414257468
 10
1403.9662185697032
 20
135.8868707388481
 10
1406.214387145997
 20
134.66814980921973
 10
1408.3859453768414
 20
133.44594071188303
 10
1410.4873477736066
 20
132.2206481036985
 10
1412.517664714744
 20
130.99234477055978
 10
1414.4765665676523
 20
129.76112595843924
 10
1416.3721226716734
 20
128.52741469939457
 10
1418.2007970814695
 20
127.29116548378991
 10
1419.9611641765873
 20
126.05242385608173
 10
1421.6604614113658
 20
124.81154004927664
 10
1423.2992899577282
 20
123.56861185908018
 10
1424.8783355366427
 20
122.32373768028557
 10
1426.3983892383276
 20
121.07701673844001
 10
1427.8603749262807
 20
119.8285493701597
 10
1429.2653857934815
 20
118.57843736593082
 10
1430.6147338767973
 20
117.32678439441818
 10
1431.9100183043806
 20
116.07369653497281
 10
1433.1532212766679
 20
114.81928295667183
 10
1434.3468462495864
 20
113.56365680044344
 10
1435.4941224292363
 20
112.30693635036513
 10
1436.5769334996744
 20
111.04877726076957
 10
1437.6148024486918
 20
109.7896757807791
 10
1438.6135790921508
 20
108.52977788991339
 10
1439.5589230318737
 20
107.26883413002973
 10
1440.4525395427468
 20
106.00695310649189
 10
1441.3213350743788
 20
104.7446268553629
 10
1442.1151173730439
 20
103.48105608261864
 10
1442.891379704078
 20
102.2172231190767
 10
1443.6014637768233
 20
100.95239978096902
 10
1444.2963985405888
 20
99.6873763612179
 10
1444.9148171003576
 20
98.42134236812093
 10
1445.5332356601266
 20
97.15530837502398
 10
1446.0667310767678
 20
95.88831868873967
 10
1446.5813607868283
 20
94.6211166948722
 10
1447.0959904968886
 20
93.35391470100471
 10
1447.485064757819
 20
92.08558711180663
 10
1447.873868457048
 20
90.81725709704263
 10
1448.2626721562772
 20
89.54892708227862
 10
1448.590021987872
 20
88.28026474407906
 10
1448.7466862114418
 20
87.01067939110719
 10
1448.9033504350114
 20
85.74109403813533
 10
1449.0600146585812
 20
84.47150868516346
 10
1449.216678882151
 20
83.20192333219158
 10
1449.373343105721
 20
81.9323379792184
 10
1449.5300073292906
 20
80.66275262624654
 10
1449.6866715528604
 20
79.39316727327467
 10
1449.8433357764302
 20
78.1235819203028
 10
1450.0
 20
76.85399656733094
  0
LWPOLYLINE
  5
31
330
17
100
AcDbEntity
  8
0
100
AcDbPolyline
 90
251
 70
0
 10
0.0
 20
0.0
 10
6.313939456028729
 20
0.0664657911624532
 10
12.627459605746957
 20
0.13392625333257327
 10
18.940548175497295
 20
0.20239540853803056
 10
25.253187699778586
 20
0.2718984371462096
 10
31.565373466110426
 20
0.34243070225245115
 10
37.877091195342274
 20
0.4140090590704765
 10
44.18832456317338
 20
0.4866540267705668
 10
50.499067502196425
 20
0.5603631532008538
 10
56.809303595685215
 20
0.6351560975682261
 10
63.11901783300277
 20
0.7110486723650191
 10
69.42820269954107
 20
0.7880405832032806
 10
75.73683952009887
 20
0.8661542348107197
 10
82.0449147555738
 20
0.945400744022541
 10
88.35241936296345
 20
1.02578192087101
 10
94.65933230358841
 20
1.1073228241219744
 10
100.96564164483863
 20
1.1900299501193121
 10
107.27133674958732
 20
1.2739071298780058
 10
113.5763941319274
 20
1.3589819479823735
 10
119.88080356816694
 20
1.4452564272574622
 10
126.18455278179067
 20
1.532736302425225
 10
132.4876157831928
 20
1.6214515152316904
 10
138.78998411651332
 20
1.711399841399044
 10
145.09164384669722
 20
1.8025887645142633
 10
151.392566457959
 20
1.8950503707412674
 10
157.69274526527923
 20
1.9887785021218043
 10
163.99216468833774
 20
2.083782195010858
 10
170.29079370408493
 20
2.18009541958976
 10
176.58862733160603
 20
2.277708492081499
 10
182.8856483133735
 20
2.376631895265192
 10
189.18182344139254
 20
2.476900767929485
 10
195.47714903316344
 20
2.578502813916319
 10
201.77160585834582
 20
2.6814502613641524
 10
208.06516009078362
 20
2.7857768828754046
 10
214.35780765270937
 20
2.891470556972594
 10
220.64952818148447
 20
2.9985438248008274
 10
226.94028681148956
 20
3.107029773886997
 10
233.23007931181345
 20
3.216916086363796
 10
239.5188844772968
 20
3.328215161008316
 10
245.80666584919013
 20
3.4409601982382716
 10
252.09341935613986
 20
3.555138256999411
 10
258.37912332464583
 20
3.670761077270303
 10
264.66373899667997
 20
3.7878628932893004
 10
270.94726285360275
 20
3.90642965533099
 10
277.22967322302117
 20
4.026471864498518
 10
283.51092816761945
 20
4.148025838371976
 10
289.7910252055326
 20
4.271075871660531
 10
296.0699420763501
 20
4.395632049157759
 10
302.34763608267775
 20
4.521729549191821
 10
308.6241028697412
 20
4.649354805938115
 10
314.8993206820557
 20
4.778516130417478
 10
321.17324706607616
 20
4.909246407717798
 10
327.4458741930483
 20
5.0415360100417725
 10
333.7171816134238
 20
5.175390627658286
 10
339.98712794918
 20
5.310840030586461
 10
346.2557003494571
 20
5.447880069581216
 10
352.5228804992568
 20
5.586513032128578
 10
358.78862907637597
 20
5.726764679082865
 10
365.05292637873856
 20
5.868638028296519
 10
371.3157571971965
 20
6.012131111655166
 10
377.5770854070221
 20
6.157264713777803
 10
383.83688231872526
 20
6.304050858135743
 10
390.0951369554786
 20
6.452482396498892
 10
396.35181770578487
 20
6.602574096901781
 10
402.6068844231341
 20
6.754348978089379
 10
408.8603316571975
 20
6.907793714985318
 10
415.1121336261284
 20
7.062916133127947
 10
421.3622364552532
 20
7.219751824836055
 10
427.6106411369176
 20
7.378280781957555
 10
433.85732168453404
 20
7.538510227744172
 10
440.10223104634025
 20
7.700467478215577
 10
446.3453545579877
 20
7.864147843053074
 10
452.58667400145515
 20
8.029550219037711
 10
458.8261511061177
 20
8.19669234449262
 10
465.06375183745627
 20
8.365587377751474
 10
471.29946765993503
 20
8.536224633426912
 10
477.5332712713043
 20
8.70861090030985
 10
483.76510510405274
 20
8.882779864072445
 10
489.99497244138115
 20
9.058709931083644
 10
496.22284618184665
 20
9.236407072044107
 10
502.44868017331413
 20
9.41589360773192
 10
508.6724523028054
 20
9.597170357085812
 10
514.8941484988522
 20
9.780231276928943
 10
521.1137380225829
 20
9.965084638488497
 10
527.3311668478971
 20
10.151757860675717
 10
533.5464370281808
 20
10.340231003688524
 10
539.7595211549094
 20
10.530509010568938
 10
545.9703727729253
 20
10.722612085268704
 10
552.1789677197461
 20
10.916541825627561
 10
558.3852936306611
 20
11.112290403299946
 10
564.5893230404905
 20
11.309862182477026
 10
570.7909954664187
 20
11.509287110578784
 10
576.9903136164318
 20
11.710545281956355
 10
583.187252263356
 20
11.913638882502244
 10
589.3817754105012
 20
12.118578186028074
 10
595.5738365127398
 20
12.325381030287547
 10
601.7634352513357
 20
12.534030250338043
 10
607.9505442466564
 20
12.744529232174175
 10
614.1351195529843
 20
12.956893334940471
 10
620.3171299838582
 20
13.171128166351084
 10
626.4965681632468
 20
13.38722206573811
 10
632.6734068446494
 20
13.605177894554396
 10
638.8475976254749
 20
13.825013304633348
 10
645.0191180247322
 20
14.04672726742713
 10
651.1879569279051
 20
14.270310916331713
 10
657.3540872650913
 20
14.495766621983464
 10
663.5174603861008
 20
14.723111331991657
 10
669.6780543884951
 20
14.952343412309103
 10
675.8358584428419
 20
15.183453871406124
 10
681.9908456804503
 20
15.416444630977812
 10
688.1429721614904
 20
15.651328746292188
 10
694.2922068861764
 20
15.888110421096862
 10
700.438544071311
 20
16.126777423998096
 10
706.5819570513827
 20
16.367331278311596
 10
712.7224123342255
 20
16.60977777928347
 10
718.8598585235864
 20
16.8541338027002
 10
724.994300412866
 20
17.10038057807322
 10
731.125711514847
 20
17.348519290234837
 10
737.2540653766499
 20
17.59855105107138
 10
743.3793070769082
 20
17.850494272560034
 10
749.5014284458373
 20
18.104338515821734
 10
755.6204130754345
 20
18.36007858223295
 10
761.7362346150177
 20
18.617715334252438
 10
767.8488628320956
 20
18.877251881798372
 10
773.958240758784
 20
19.138706888574387
 10
780.0643763084194
 20
19.40206071530161
 10
786.167243128896
 20
19.667314059128756
 10
792.2668148438707
 20
19.934467591222926
 10
798.363056551574
 20
20.203526785493334
 10
804.4559207440138
 20
20.474504046172292
 10
810.5454102542425
 20
20.747383219643954
 10
816.6314985108364
 20
21.02216493486267
 10
822.7141588598214
 20
21.29884982811546
 10
828.7933625510015
 20
21.57743964402619
 10
834.8690493899128
 20
21.857953136984193
 10
840.9412275729734
 20
22.140371629154874
 10
847.0098699712247
 20
22.424695861129653
 10
853.0749492909911
 20
22.710926620546353
 10
859.1364380541858
 20
22.999064750862384
 10
865.1942899005953
 20
23.28912094105304
 10
871.2484779086848
 20
23.581095458511353
 10
877.2989915222283
 20
23.874980089923554
 10
883.3458023094042
 20
24.170775996457223
 10
889.3888815352866
 20
24.46848444438021
 10
895.428200133789
 20
24.768106816010306
 10
901.4637115428252
 20
25.06965322124461
 10
907.4953853137953
 20
25.373125450416506
 10
913.5232089445655
 20
25.678516342172294
 10
919.5471517341604
 20
25.98582786233046
 10
925.5671824830782
 20
26.295062154584738
 10
931.5832694539332
 20
26.606221554356015
 10
937.5953803298411
 20
26.9193086032214
 10
943.6034561184927
 20
27.234338524883448
 10
949.6074824877353
 20
27.551304913718546
 10
955.6074319262981
 20
27.87020774291964
 10
961.6032693359672
 20
28.19105053745542
 10
967.594958791583
 20
28.513837110667527
 10
973.5824634827727
 20
28.83857158292126
 10
979.5657456522828
 20
29.16525840111356
 10
985.5447649163956
 20
29.49390309555659
 10
991.5194547823268
 20
29.82452289009962
 10
997.4898026291265
 20
30.157110307100243
 10
1003.4557662224537
 20
30.49167131531324
 10
1009.41730201312
 20
30.828212322490135
 10
1015.3743650497873
 20
31.166740201276347
 10
1021.3269088863116
 20
31.507262316432097
 10
1027.2748854833453
 20
31.849786553465666
 10
1033.218245103784
 20
32.19432134877676
 10
1039.1569362016085
 20
32.54087572141483
 10
1045.0908962633814
 20
32.88946316588893
 10
1051.0200630741515
 20
33.240096730676534
 10
1056.9443949461206
 20
33.592780508584994
 10
1062.863831846998
 20
33.94752620180031
 10
1068.7783112626369
 20
34.30434628210125
 10
1074.687768034271
 20
34.66325403499926
 10
1080.592134184565
 20
35.02426360651991
 10
1086.4913387315619
 20
35.38739005283024
 10
1092.3853074894892
 20
35.7526493929345
 10
1098.2739628553118
 20
36.1200586646812
 10
1104.1572235797785
 20
36.489635984348006
 10
1110.0350045215978
 20
36.86140061009583
 10
1115.9072163832184
 20
37.23537300961166
 10
1121.7737654265452
 20
37.61157493229134
 10
1127.634553166716
 20
37.99002948634744
 10
1133.4894760418815
 20
38.370761221267514
 10
1139.3384250566844
 20
38.753796216089476
 10
1145.1812853968718
 20
39.13916217401058
 10
1151.0179314362413
 20
39.526890250853086
 10
1156.8482377043404
 20
39.91701082314041
 10
1162.6720730910033
 20
40.3095556715405
 10
1168.4892951169454
 20
40.70456004697343
 10
1174.2997530318978
 20
41.10206140899194
 10
1180.1032871857378
 20
41.50209957193491
 10
1185.8997283424103
 20
41.90471686283857
 10
1191.6888969303016
 20
42.30995829226963
 10
1197.470602221916
 20
42.71787173937784
 10
1203.2446384746581
 20
43.12850919562805
 10
1209.0107816198727
 20
43.541927752173336
 10
1214.7688089837736
 20
43.958182548506066
 10
1220.518474782299
 20
44.37733526604549
 10
1226.2595165081273
 20
44.79945167080821
 10
1231.9916534575882
 20
45.224601924303805
 10
1237.7145850978254
 20
45.652860923861006
 10
1243.427989253351
 20
46.084308675729254
 10
1249.1315200879876
 20
46.51903070472637
 10
1254.8248058545535
 20
46.95711850468439
 10
1260.5074463803885
 20
47.398670034485974
 10
1266.1790102518778
 20
47.843790265089915
 10
1271.839031655373
 20
48.29259178361783
 10
1277.4870068252535
 20
48.74519546131247
 10
1283.122390042171
 20
49.20173119297884
 10
1288.7444969405874
 20
49.66236685231764
 10
1294.3527291481669
 20
50.12723821276947
 10
1299.9464048459188
 20
50.596501209342286
 10
1305.524753500357
 20
51.070332205658296
 10
1311.0869319118597
 20
51.548921941103295
 10
1316.6320153942115
 20
52.03247696666155
 10
1322.1588677492873
 20
52.521255119157516
 10
1327.657534043836
 20
53.01795864701227
 10
1333.1187629641645
 20
53.52494580006607
 10
1338.5404211064733
 20
54.042507748626235
 10
1343.919914918019
 20
54.57102375424872
 10
1349.254083472805
 20
55.11097283316805
 10
1354.5407304387436
 20
55.66255373757882
 10
1359.7760987873335
 20
56.22630587473058
 10
1364.956141370756
 20
56.80277068670775
 10
1370.077750670934
 20
57.39222484537876
 10
1375.134649648941
 20
57.99556957277054
 10
1380.1235126992829
 20
58.612998125192775
 10
1385.0371387318296
 20
59.24542156668778
 10
1389.8696467722673
 20
59.89337624137276
 10
1394.6146066154463
 20
60.557407697686585
 10
1399.2632709981792
 20
61.23835935353998
 10
1403.8056059823098
 20
61.93712747962951
 10
1408.232865536556
 20
62.65422911468185
 10
1412.533795333143
 20
63.39041334818375
 10
1416.6962574733518
 20
64.1463559823398
 10
1420.7034845600144
 20
64.92311048026465
 10
1424.5412387928916
 20
65.72108402092732
 10
1428.1977542740403
 20
66.5401911735713
 10
1431.641505386691
 20
67.38216309166911
 10
1434.8625672861886
 20
68.245994084405
 10
1437.836053558411
 20
69.13185259542735
 10
1440.5366067131438
 20
70.03939911148359
 10
1442.9491174338887
 20
70.96712063495119
 10
1445.0251047453542
 20
71.91509014083393
 10
1446.7731385071013
 20
72.8795077918287
 10
1448.1334475275953
 20
73.85947465966238
 10
1448.9159202848884
 20
74.85392594875566
 10
1449.4579601424443
 20
75.8539612580436
 10
1450.0
 20
76.85399656733094
  0
LWPOLYLINE
  5
32
330
17
100
AcDbEntity
  8
0
100
AcDbPolyline
 90
2
 70
0
 10
0.0
 20
61.66907700000001
 10
1450.0
 20
76.85399656733094
  0
ENDSEC
  0
SECTION
  2
OBJECTS
  0
DICTIONARY
  5
A
330
0
100
AcDbDictionary
281
1
  3
ACAD_COLOR
350
B
  3
ACAD_GROUP
350
C
  3
ACAD_LAYOUT
350
D
  3
ACAD_MATERIAL
350
E
  3
ACAD_MLEADERSTYLE
350
F
  3
ACAD_MLINESTYLE
350
10
  3
ACAD_PLOTSETTINGS
350
11
  3
ACAD_PLOTSTYLENAME
350
12
  3
ACAD_SCALELIST
350
14
  3
ACAD_TABLESTYLE
350
15
  3
ACAD_VISUALSTYLE
350
16
  3
EZDXF_META
350
2D
  0
DICTIONARY
  5
B
330
A
100
AcDbDictionary
281
1
  0
DICTIONARY
  5
C
330
A
100
AcDbDictionary
281
1
  0
DICTIONARY
  5
D
330
A
100
AcDbDictionary
281
1
  3
Model
350
1A
  3
Layout1
350
1E
  0
DICTIONARY
  5
E
330
A
100
AcDbDictionary
281
1
  3
ByBlock
350
1F
  3
ByLayer
350
20
  3
Global
350
21
  0
DICTIONARY
  5
F
330
A
100
AcDbDictionary
281
1
  3
Standard
350
2C
  0
DICTIONARY
  5
10
330
A
100
AcDbDictionary
281
1
  3
Standard
350
22
  0
DICTIONARY
  5
11
330
A
100
AcDbDictionary
281
1
  0
ACDBDICTIONARYWDFLT
  5
12
330
A
100
AcDbDictionary
281
1
  3
Normal
350
13
100
AcDbDictionaryWithDefault
340
13
  0
ACDBPLACEHOLDER
  5
13
330
12
  0
DICTIONARY
  5
14
330
A
100
AcDbDictionary
281
1
  0
DICTIONARY
  5
15
330
A
100
AcDbDictionary
281
1
  0
DICTIONARY
  5
16
330
A
100
AcDbDictionary
281
1
  0
LAYOUT
  5
1A
330
D
100
AcDbPlotSettings
  1

  2
Adobe PDF
  4
A3
  6

 40
7.5
 41
20.0
 42
7.5
 43
20.0
 44
420.0
 45
297.0
 46
0.0
 47
0.0
 48
0.0
 49
0.0
140
0.0
141
0.0
142
1.0
143
1.0
 70
1024
 72
1
 73
1
 74
5
  7

 75
16
 76
0
 77
2
 78
300
147
1.0
148
0.0
149
0.0
100
AcDbLayout
  1
Model
 70
1
 71
0
 10
0.0
 20
0.0
 11
420.0
 21
297.0
 12
0.0
 22
0.0
 32
0.0
 14
1e+20
 24
1e+20
 34
1e+20
 15
-1e+20
 25
-1e+20
 35
-1e+20
146
0.0
 13
0.0
 23
0.0
 33
0.0
 16
1.0
 26
0.0
 36
0.0
 17
0.0
 27
1.0
 37
0.0
 76
1
330
17
  0
LAYOUT
  5
1E
330
D
100
AcDbPlotSettings
  1

  2
Adobe PDF
  4
A3
  6

 40
7.5
 41
20.0
 42
7.5
 43
20.0
 44
420.0
 45
297.0
 46
0.0
 47
0.0
 48
0.0
 49
0.0
140
0.0
141
0.0
142
1.0
143
1.0
 70
0
 72
1
 73
1
 74
5
  7

 75
16
 76
0
 77
2
 78
300
147
1.0
148
0.0
149
0.0
100
AcDbLayout
  1
Layout1
 70
1
 71
1
 10
0.0
 20
0.0
 11
420.0
 21
297.0
 12
0.0
 22
0.0
 32
0.0
 14
1e+20
 24
1e+20
 34
1e+20
 15
-1e+20
 25
-1e+20
 35
-1e+20
146
0.0
 13
0.0
 23
0.0
 33
0.0
 16
1.0
 26
0.0
 36
0.0
 17
0.0
 27
1.0
 37
0.0
 76
1
330
1B
  0
MATERIAL
  5
1F
102
{ACAD_REACTORS
330
E
102
}
330
E
100
AcDbMaterial
  1
ByBlock
  2

 70
0
 40
1.0
 71
1
 41
1.0
 91
-1023410177
 42
1.0
 72
1
  3

 73
1
 74
1
 75
1
 44
0.5
 73
0
 45
1.0
 46
1.0
 77
1
  4

 78
1
 79
1
170
1
 48
1.0
171
1
  6

172
1
173
1
174
1
140
1.0
141
1.0
175
1
  7

176
1
177
1
178
1
143
1.0
179
1
  8

270
1
271
1
272
1
145
1.0
146
1.0
273
1
  9

274
1
275
1
276
1
 42
1.0
 72
1
  3

 73
1
 74
1
 75
1
 94
63
  0
MATERIAL
  5
20
102
{ACAD_REACTORS
330
E
102
}
330
E
100
AcDbMaterial
  1
ByLayer
  2

 70
0
 40
1.0
 71
1
 41
1.0
 91
-1023410177
 42
1.0
 72
1
  3

 73
1
 74
1
 75
1
 44
0.5
 73
0
 45
1.0
 46
1.0
 77
1
  4

 78
1
 79
1
170
1
 48
1.0
171
1
  6

172
1
173
1
174
1
140
1.0
141
1.0
175
1
  7

176
1
177
1
178
1
143
1.0
179
1
  8

270
1
271
1
272
1
145
1.0
146
1.0
273
1
  9

274
1
275
1
276
1
 42
1.0
 72
1
  3

 73
1
 74
1
 75
1
 94
63
  0
MATERIAL
  5
21
102
{ACAD_REACTORS
330
E
102
}
330
E
100
AcDbMaterial
  1
Global
  2

 70
0
 40
1.0
 71
1
 41
1.0
 91
-1023410177
 42
1.0
 72
1
  3

 73
1
 74
1
 75
1
 44
0.5
 73
0
 45
1.0
 46
1.0
 77
1
  4

 78
1
 79
1
170
1
 48
1.0
171
1
  6

172
1
173
1
174
1
140
1.0
141
1.0
175
1
  7

176
1
177
1
178
1
143
1.0
179
1
  8

270
1
271
1
272
1
145
1.0
146
1.0
273
1
  9

274
1
275
1
276
1
 42
1.0
 72
1
  3

 73
1
 74
1
 75
1
 94
63
  0
MLINESTYLE
  5
22
102
{ACAD_REACTORS
330
10
102
}
330
10
100
AcDbMlineStyle
  2
Standard
 70
0
  3

 62
256
 51
90.0
 52
90.0
 71
2
 49
0.5
 62
256
  6
BYLAYER
 49
-0.5
 62
256
  6
BYLAYER
  0
MLEADERSTYLE
  5
2C
102
{ACAD_REACTORS
330
F
102
}
330
F
100
AcDbMLeaderStyle
179
2
170
2
171
1
172
0
 90
2
 40
0.0
 41
0.0
173
1
 91
-1056964608
 92
-2
290
1
 42
2.0
291
1
 43
8.0
  3
Standard
 44
4.0
300

342
29
174
1
175
1
176
0
178
1
 93
-1056964608
 45
4.0
292
0
297
0
 46
4.0
 94
-1056964608
 47
1.0
 49
1.0
140
1.0
294
1
141
0.0
177
0
142
1.0
295
0
296
0
143
3.75
271
0
272
9
273
9
  0
DICTIONARY
  5
2D
330
A
100
AcDbDictionary
280
1
281
1
  3
CREATED_BY_EZDXF
350
2E
  3
WRITTEN_BY_EZDXF
350
35
  0
DICTIONARYVAR
  5
2E
330
2D
100
DictionaryVariables
280
0
  1
0.18.1 @ 2022-11-28T16:16:01.644946+00:00
  0
DICTIONARYVAR
  5
35
330
2D
100
DictionaryVariables
280
0
  1
0.18.1 @ 2022-11-28T16:16:01.685851+00:00
  0
ENDSEC
  0
EOF
